<svg width="32" height="33" viewBox="0 0 32 33" fill="none" xmlns="http://www.w3.org/2000/svg">
<path d="M29 26.2738H3C2.73478 26.2738 2.48043 26.1684 2.29289 25.9809C2.10536 25.7934 2 25.539 2 25.2738V8.2738C2 8.00859 2.10536 7.75423 2.29289 7.5667C2.48043 7.37916 2.73478 7.2738 3 7.2738H9.46L11.17 4.7238C11.2606 4.58624 11.3838 4.47319 11.5285 4.39468C11.6733 4.31618 11.8353 4.27466 12 4.2738H20C20.1647 4.27466 20.3267 4.31618 20.4715 4.39468C20.6162 4.47319 20.7394 4.58624 20.83 4.7238L22.54 7.2738H29C29.2652 7.2738 29.5196 7.37916 29.7071 7.5667C29.8946 7.75423 30 8.00859 30 8.2738V25.2738C30 25.539 29.8946 25.7934 29.7071 25.9809C29.5196 26.1684 29.2652 26.2738 29 26.2738ZM4 24.2738H28V9.2738H22C21.8353 9.27295 21.6733 9.23143 21.5285 9.15292C21.3838 9.07442 21.2606 8.96136 21.17 8.8238L19.46 6.2738H12.54L10.83 8.8238C10.7394 8.96136 10.6162 9.07442 10.4715 9.15292C10.3267 9.23143 10.1647 9.27295 10 9.2738H4V24.2738Z" fill="white"/>
<path d="M16 22.2738C14.8133 22.2738 13.6533 21.9219 12.6666 21.2626C11.6799 20.6033 10.9109 19.6663 10.4567 18.5699C10.0026 17.4735 9.88378 16.2672 10.1153 15.1033C10.3468 13.9394 10.9182 12.8703 11.7574 12.0312C12.5965 11.1921 13.6656 10.6206 14.8295 10.3891C15.9933 10.1576 17.1997 10.2764 18.2961 10.7305C19.3925 11.1847 20.3295 11.9537 20.9888 12.9404C21.6481 13.9271 22 15.0871 22 16.2738C22 17.8651 21.3679 19.3912 20.2426 20.5164C19.1174 21.6417 17.5913 22.2738 16 22.2738ZM16 12.2738C15.2089 12.2738 14.4355 12.5084 13.7777 12.9479C13.1199 13.3875 12.6072 14.0122 12.3045 14.7431C12.0017 15.474 11.9225 16.2782 12.0769 17.0542C12.2312 17.8301 12.6122 18.5428 13.1716 19.1022C13.731 19.6616 14.4437 20.0426 15.2196 20.1969C15.9956 20.3513 16.7998 20.2721 17.5307 19.9693C18.2616 19.6666 18.8864 19.1539 19.3259 18.4961C19.7654 17.8383 20 17.0649 20 16.2738C20 15.2129 19.5786 14.1955 18.8284 13.4454C18.0783 12.6952 17.0609 12.2738 16 12.2738Z" fill="white"/>
</svg>
