<svg width="24" height="25" viewBox="0 0 24 25" fill="none" xmlns="http://www.w3.org/2000/svg">
<mask id="mask0_17_141" style="mask-type:luminance" maskUnits="userSpaceOnUse" x="1" y="2" width="22" height="21">
<path d="M17 3.54749H7C5.93913 3.54749 4.92172 3.96891 4.17157 4.71906C3.42143 5.4692 3 6.48662 3 7.54749V17.5475C3 18.6084 3.42143 19.6258 4.17157 20.3759C4.92172 21.1261 5.93913 21.5475 7 21.5475H17C18.0609 21.5475 19.0783 21.1261 19.8284 20.3759C20.5786 19.6258 21 18.6084 21 17.5475V7.54749C21 6.48662 20.5786 5.4692 19.8284 4.71906C19.0783 3.96891 18.0609 3.54749 17 3.54749Z" fill="white" stroke="white" stroke-width="2.66667" stroke-linejoin="round"/>
<path d="M12 16.5475C13.0609 16.5475 14.0783 16.1261 14.8284 15.3759C15.5786 14.6258 16 13.6084 16 12.5475C16 11.4866 15.5786 10.4692 14.8284 9.71906C14.0783 8.96891 13.0609 8.54749 12 8.54749C10.9391 8.54749 9.92172 8.96891 9.17157 9.71906C8.42143 10.4692 8 11.4866 8 12.5475C8 13.6084 8.42143 14.6258 9.17157 15.3759C9.92172 16.1261 10.9391 16.5475 12 16.5475Z" fill="black" stroke="black" stroke-width="2.66667" stroke-linejoin="round"/>
<path d="M17.5 8.04749C17.7652 8.04749 18.0196 7.94213 18.2071 7.75459C18.3946 7.56706 18.5 7.3127 18.5 7.04749C18.5 6.78227 18.3946 6.52792 18.2071 6.34038C18.0196 6.15284 17.7652 6.04749 17.5 6.04749C17.2348 6.04749 16.9804 6.15284 16.7929 6.34038C16.6054 6.52792 16.5 6.78227 16.5 7.04749C16.5 7.3127 16.6054 7.56706 16.7929 7.75459C16.9804 7.94213 17.2348 8.04749 17.5 8.04749Z" fill="black"/>
</mask>
<g mask="url(#mask0_17_141)">
<path d="M0 0.547485H24V24.5475H0V0.547485Z" fill="white"/>
</g>
</svg>
