<svg width="17" height="17" viewBox="0 0 17 17" fill="none" xmlns="http://www.w3.org/2000/svg">
<g clip-path="url(#clip0_45_83)">
<path d="M10.9001 9.60718C11.0334 8.94051 11.3668 8.47384 11.9001 7.94051C12.5668 7.34051 12.9001 6.47384 12.9001 5.60718C12.9001 4.54631 12.4787 3.5289 11.7285 2.77875C10.9784 2.02861 9.96095 1.60718 8.90009 1.60718C7.83922 1.60718 6.8218 2.02861 6.07166 2.77875C5.32151 3.5289 4.90009 4.54631 4.90009 5.60718C4.90009 6.27384 5.03342 7.07384 5.90009 7.94051C6.36675 8.40718 6.76675 8.94051 6.90009 9.60718" stroke="white" stroke-width="1.33333" stroke-linecap="round" stroke-linejoin="round"/>
<path d="M6.90009 12.2739H10.9001" stroke="white" stroke-width="1.33333" stroke-linecap="round" stroke-linejoin="round"/>
<path d="M7.56677 14.9406H10.2334" stroke="white" stroke-width="1.33333" stroke-linecap="round" stroke-linejoin="round"/>
</g>
<defs>
<clipPath id="clip0_45_83">
<rect width="16" height="16" fill="white" transform="translate(0.900085 0.273804)"/>
</clipPath>
</defs>
</svg>
