<svg width="67" height="41" viewBox="0 0 67 41" fill="none" xmlns="http://www.w3.org/2000/svg">
<g clip-path="url(#clip0_4_527)">
<path d="M37.8468 26.2709C37.8104 24.2067 38.2923 22.7699 38.747 21.8333C39.2744 20.7421 39.72 20.4147 40.2929 19.1234C40.884 17.7867 41.2113 16.3681 41.2113 15.5134C41.2113 13.3037 40.2111 10.612 37.874 9.05704C36.0735 7.85671 34.2094 7.79306 33.391 7.82034C29.0534 7.82034 25.5434 11.2667 25.5434 15.5134C25.5434 19.76 25.8707 17.7867 26.4618 19.1234C27.0347 20.4056 27.4803 20.7421 28.0077 21.8333C28.4624 22.7699 28.9443 24.2067 28.9079 26.2709H37.8468Z" fill="white" stroke="white" stroke-width="2.30973" stroke-miterlimit="10"/>
<path d="M27.6894 31.3541H39.2199C38.0286 33.4092 35.828 34.3004 33.4546 34.3004C31.0813 34.3004 28.8716 33.4092 27.6894 31.3541Z" fill="white" stroke="white" stroke-width="0.0727473" stroke-miterlimit="10"/>
<path d="M15.9134 27.1802C15.5952 26.4164 15.3042 25.6343 15.0769 24.8341C14.9495 24.434 14.8586 24.0339 14.7586 23.6247L14.7222 23.4701L14.6949 23.3155L14.6313 23.0064C14.5949 22.7972 14.5403 22.5971 14.5131 22.388C14.4494 21.9788 14.3767 21.5605 14.3403 21.1422L14.3039 20.833C14.2948 20.7239 14.2766 20.6239 14.2766 20.5148L14.2312 19.8873C14.213 19.6782 14.213 19.469 14.213 19.2508C14.213 19.0416 14.2039 18.8234 14.213 18.6142C14.2221 18.1959 14.2221 17.7685 14.2584 17.3412C14.3676 15.6407 14.7131 13.9493 15.2587 12.3034C15.5406 11.485 15.8589 10.6757 16.259 9.89366L16.4045 9.60267C16.45 9.50264 16.5045 9.41171 16.5591 9.31168L16.8773 8.73879L17.2229 8.175L17.3957 7.89311L17.5866 7.6203C17.7139 7.43844 17.8413 7.25657 17.9686 7.0747L18.3778 6.54728C18.4505 6.45635 18.5142 6.37451 18.5869 6.28357L18.8052 6.02896C18.9506 5.86528 19.0961 5.6925 19.2416 5.52882L19.7054 5.04687C19.7872 4.96503 19.86 4.88319 19.9418 4.81044L20.1873 4.5831C20.351 4.43761 20.5147 4.27393 20.6784 4.13753L21.1876 3.71014C21.3604 3.56464 21.5332 3.42824 21.715 3.30093C21.8969 3.17363 22.0697 3.03723 22.2606 2.90992C22.6335 2.6644 23.0063 2.40978 23.3882 2.19154C23.5792 2.08242 23.7792 1.9642 23.9702 1.86418L24.5704 1.56409C24.6704 1.51863 24.7704 1.46407 24.8705 1.4186L25.1796 1.2822C25.3797 1.19126 25.5888 1.10033 25.798 1.01849L26.4254 0.78206L27.062 0.563818C27.2711 0.500164 27.4894 0.43651 27.7076 0.372856C27.9258 0.309202 28.1441 0.263735 28.3623 0.218268C28.5806 0.181895 28.8079 0.154614 29.0352 0.145521C29.2626 0.136428 29.4899 0.145521 29.7172 0.145521C30.1719 0.181895 30.6266 0.263735 31.0813 0.38195C31.3086 0.43651 31.5268 0.509257 31.7451 0.572911C31.9633 0.636565 32.1816 0.709312 32.3998 0.78206C32.8272 0.918461 33.2455 1.05486 33.6547 1.15489C33.8638 1.20036 34.0639 1.25492 34.2639 1.29129C34.464 1.32766 34.6732 1.36404 34.8732 1.38222C34.9278 1.38222 34.9732 1.39132 35.0278 1.40041C35.0824 1.40041 35.1278 1.4095 35.1824 1.4095C35.2824 1.4095 35.3915 1.4095 35.4916 1.40041C35.6007 1.40041 35.7007 1.38222 35.8098 1.37313C35.8644 1.37313 35.9189 1.37313 35.9644 1.37313C35.9917 1.37313 36.019 1.37313 36.0463 1.37313C36.0735 1.37313 36.1008 1.37313 36.119 1.38222L36.0735 1.68231C36.0463 1.68231 36.019 1.68231 36.0008 1.67321C35.9917 1.67321 35.9735 1.66412 35.9644 1.66412C35.9553 1.66412 35.9371 1.66412 35.9189 1.68231C35.8644 1.70959 35.8098 1.73687 35.7553 1.78233C35.6461 1.85508 35.5279 1.94602 35.4188 2.01876C35.3643 2.05514 35.3097 2.1006 35.2551 2.12788C35.2006 2.15516 35.146 2.18244 35.1005 2.20063C35.0005 2.23701 34.9005 2.23701 34.8005 2.2461L34.2094 2.32794C34.0093 2.36431 33.8184 2.39159 33.6274 2.42797L33.0545 2.54618C32.8636 2.59165 32.6726 2.62802 32.4816 2.67349C32.2907 2.71896 32.1088 2.75533 31.9178 2.80989C31.736 2.86445 31.545 2.90082 31.3631 2.94629L29.1807 3.4828L28.6351 3.6192L28.0986 3.7647L27.5621 3.92838L27.0347 4.11025C26.3345 4.38305 25.6343 4.65585 24.9796 5.01049C24.634 5.16508 24.3158 5.36514 23.9884 5.54701C23.8247 5.63794 23.6701 5.74706 23.5064 5.84709C23.3519 5.94712 23.1882 6.04714 23.0336 6.15626L22.5698 6.48363C22.4152 6.59275 22.2697 6.71096 22.1152 6.82918C21.806 7.05651 21.5241 7.31113 21.2331 7.54756C21.0876 7.67486 20.9512 7.80217 20.8148 7.93857L20.6056 8.12953C20.5329 8.19319 20.4692 8.26593 20.4056 8.32959L20.0055 8.73879L19.6236 9.16618L19.4326 9.38442L19.2507 9.61176L18.887 10.0573L18.5414 10.5211C18.4869 10.6029 18.4232 10.6757 18.3687 10.7575L18.205 11.0031C18.0959 11.1667 17.9867 11.3213 17.8867 11.4941L17.5866 11.9942C17.4866 12.1579 17.3957 12.3307 17.3047 12.5035C17.2138 12.6762 17.1138 12.849 17.0319 13.0218C16.8683 13.3764 16.6864 13.7311 16.5409 14.0948L16.4227 14.3676C16.3863 14.4585 16.3499 14.5495 16.3136 14.6404L16.1135 15.1951C15.868 15.9499 15.6497 16.7137 15.5042 17.4957C15.4224 17.8868 15.3678 18.2778 15.3042 18.6779C15.286 18.7779 15.2769 18.8779 15.2678 18.978L15.2405 19.2781C15.2223 19.4781 15.2042 19.6782 15.1951 19.8782L15.1678 20.4784C15.1587 20.6784 15.1678 20.8785 15.1678 21.0785C15.1678 21.4787 15.2042 21.8788 15.2314 22.288C15.3042 23.0882 15.4224 23.8975 15.6134 24.6795C15.7861 25.4707 16.0408 26.2436 16.3136 27.0075L15.9589 27.1529L15.9134 27.1802Z" fill="white"/>
<path d="M50.8685 13.3492C51.1777 14.1131 51.4778 14.8951 51.7051 15.6953C51.8324 16.0955 51.9234 16.4956 52.0234 16.9048L52.0598 17.0594L52.087 17.2139L52.1507 17.5231L52.2143 17.8323C52.2325 17.9323 52.2598 18.0414 52.2689 18.1415C52.3326 18.5507 52.4053 18.969 52.4417 19.3873C52.4599 19.5964 52.4962 19.8056 52.5053 20.0147L52.5417 20.6422C52.5599 20.8513 52.5599 21.0605 52.5599 21.2696C52.5599 21.4787 52.569 21.6879 52.5599 21.9061C52.5508 22.3244 52.5417 22.7518 52.5053 23.1792L52.4781 23.4975C52.4781 23.6066 52.4599 23.7066 52.4508 23.8158L52.3689 24.4523C52.3508 24.6614 52.3053 24.8706 52.2689 25.0797L52.2143 25.398L52.1871 25.5526L52.1507 25.7072L52.0143 26.3346C51.9961 26.4438 51.9688 26.5438 51.9415 26.6438L51.8597 26.953C51.7597 27.3713 51.6142 27.7805 51.4869 28.1897C51.4232 28.3988 51.3414 28.5989 51.2595 28.7989C51.1868 28.999 51.105 29.2081 51.014 29.3991L50.7503 29.9993C50.6594 30.1993 50.5593 30.3903 50.4684 30.5812L50.3229 30.8722C50.2775 30.9723 50.2138 31.0632 50.1683 31.1632L49.8501 31.7361C49.7409 31.9271 49.6227 32.1089 49.5045 32.2908L49.3317 32.5636L49.1408 32.8364C49.0135 33.0183 48.8862 33.2002 48.7589 33.3729L48.3497 33.8913C48.2769 33.9731 48.2133 34.064 48.1405 34.1459L47.9223 34.3914C47.7768 34.5551 47.6313 34.7278 47.4858 34.8824C47.1766 35.1916 46.8765 35.519 46.5401 35.81C46.3764 35.9555 46.2127 36.11 46.049 36.2555C45.8762 36.401 45.7035 36.5374 45.5307 36.6738C45.3579 36.8193 45.1761 36.9466 45.0033 37.0739C44.8214 37.2013 44.6486 37.3377 44.4668 37.465C44.2849 37.5832 44.0939 37.7105 43.9121 37.8287C43.7302 37.956 43.5301 38.056 43.3392 38.1652C42.5753 38.6198 41.766 38.9836 40.9476 39.3291L40.3293 39.5655C40.1201 39.6383 39.911 39.711 39.6927 39.7747C39.4745 39.8383 39.2653 39.8838 39.0471 39.9384C38.8289 39.9838 38.6106 40.0111 38.3924 40.0475C38.1741 40.0748 37.9468 40.093 37.7285 40.1021C37.5103 40.1111 37.283 40.1021 37.0556 40.1021C36.9465 40.1021 36.8283 40.093 36.7192 40.0839L36.3827 40.0566C36.1645 40.0384 35.9371 40.002 35.7189 39.9747C34.8368 39.8474 33.9912 39.6292 33.1637 39.4473C32.3362 39.2655 31.5359 39.1109 30.7175 38.9745L30.8539 38.1288C31.636 38.2106 32.418 38.1924 33.2 38.0833C33.391 38.0469 33.582 38.0197 33.7729 37.9833C33.9639 37.9469 34.1548 37.9105 34.3458 37.8651C34.5368 37.8196 34.7186 37.7741 34.9096 37.7196C35.0915 37.665 35.2824 37.6196 35.4643 37.565C36.1918 37.3377 36.901 37.1012 37.6012 36.8739C38.3014 36.6466 39.0107 36.4374 39.7018 36.1828C41.0749 35.6554 42.4117 35.0006 43.6393 34.1641C44.8669 33.3275 46.0217 32.3454 47.0311 31.2087L47.2221 30.9995L47.4039 30.7813L47.7677 30.3357L48.1132 29.8811C48.1678 29.8083 48.2314 29.7265 48.286 29.6537L48.4497 29.4173C48.8953 28.7898 49.2772 28.1169 49.6409 27.4258C49.8137 27.0803 49.9956 26.7256 50.1411 26.371L50.2593 26.0982C50.2956 26.0073 50.3411 25.9163 50.3684 25.8254L50.5775 25.2707C50.8412 24.525 51.0595 23.7703 51.2141 22.9883C51.305 22.5972 51.3596 22.2062 51.4232 21.8152C51.4414 21.7152 51.4505 21.6152 51.4596 21.5151L51.4869 21.215C51.5051 21.015 51.5323 20.8149 51.5414 20.6149L51.5687 20.0147C51.5687 19.9147 51.5687 19.8147 51.5687 19.7146V19.4145C51.5687 19.0144 51.5414 18.6143 51.5232 18.2051C51.4596 17.4049 51.3505 16.6047 51.1686 15.8136C51.0049 15.0224 50.7594 14.2495 50.4957 13.4765L50.8503 13.3311L50.8685 13.3492Z" fill="white"/>
<path d="M0 20.3969C0.00909341 20.315 0.0636539 20.2241 0.100028 20.1513C0.45467 19.4421 0.845687 18.751 1.25489 18.078C6.2017 10.1031 13.9311 3.71046 23.0609 1.20977C25.6616 0.491395 28.3714 0.100378 31.0722 0.0185375C35.9099 -0.0996768 40.7748 0.591422 45.3579 2.16458C51.2232 4.18332 56.5883 7.72065 60.7894 12.2492C63.1355 14.7408 65.1088 17.5506 66.8002 20.506C65.1634 23.4886 62.99 26.1439 60.5985 28.5718C55.979 33.2186 50.2047 36.8287 43.9303 38.7837C43.3301 38.9565 42.6845 39.1475 42.0843 39.3112C41.3477 39.4839 40.3111 39.7385 39.5745 39.8568L38.3105 40.0841C37.874 40.1568 36.8283 40.2751 36.4009 40.3296C35.9917 40.366 34.9096 40.4478 34.4822 40.4842C34.1185 40.5115 33.5729 40.5206 33.2 40.5297C32.809 40.5388 32.2998 40.566 31.9179 40.557C31.4541 40.5479 30.4265 40.5206 29.9901 40.4933C29.5263 40.4569 28.8443 40.4024 28.3805 40.3569C27.4166 40.2478 26.4618 40.1205 25.5161 39.9204C25.307 39.884 24.7704 39.7658 24.5704 39.7295C24.2521 39.6476 23.1791 39.3839 22.8517 39.3021C22.3243 39.1384 21.6878 38.9474 21.1604 38.7746C20.7239 38.6201 20.0782 38.3836 19.6509 38.229C18.8325 37.9017 17.7867 37.447 17.0047 37.056C12.8126 35.01 9.02975 32.091 5.86525 28.681C3.8647 26.5167 2.08239 24.1615 0.627445 21.6154C0.409203 21.2153 0.163681 20.8243 0.00909341 20.406L0 20.3969ZM0.40011 20.3878C0.42739 20.406 0.45467 20.4151 0.472857 20.4332C0.472857 20.4332 0.472857 20.4332 0.491044 20.4514L0.518324 20.4787L0.563791 20.5424C1.47313 21.7882 2.45522 22.9703 3.49187 24.1161C7.29291 28.3081 11.8123 31.9546 16.9228 34.4098C19.7873 35.8102 22.8699 36.8105 26.0072 37.3652C30.5266 38.1836 35.2097 38.0199 39.7291 37.2106C40.1838 37.1287 41.0386 36.9287 41.4932 36.8378C42.0661 36.7104 42.6663 36.5286 43.2392 36.3922C44.9487 35.8829 46.7128 35.2919 48.3406 34.5644C55.4152 31.4817 61.6806 26.4985 66.4364 20.4151V20.6151C61.5442 14.0588 55.1242 8.4845 47.4767 5.46549C42.2298 3.35582 36.5191 2.44648 30.863 2.61925C25.216 2.80112 19.6963 4.44703 14.7859 7.26599C9.17525 10.4941 4.33756 15.0136 0.545605 20.2423L0.45467 20.3696L0.409203 20.4332C0.409203 20.4241 0.409203 20.4151 0.40011 20.406V20.3878Z" fill="white"/>
</g>
<defs>
<clipPath id="clip0_4_527">
<rect width="66.8002" height="40.5475" fill="white"/>
</clipPath>
</defs>
</svg>
