<?xml version="1.0" encoding="UTF-8"?>
<svg id="Camada_2" data-name="Camada 2" xmlns="http://www.w3.org/2000/svg" viewBox="0 0 734.6 445.9">
  <defs>
    <style>
      .cls-1 {
        stroke-width: .8px;
      }

      .cls-1, .cls-2 {
        stroke: #fff;
        stroke-miterlimit: 10;
      }

      .cls-1, .cls-2, .cls-3 {
        fill: #fff;
      }

      .cls-2 {
        stroke-width: 25.4px;
      }

      .cls-3 {
        stroke-width: 0px;
      }
    </style>
  </defs>
  <g id="Camada_1-2" data-name="Camada 1">
    <g>
      <g>
        <path class="cls-2" d="M416.2,288.9c-.4-22.7,4.9-38.5,9.9-48.8,5.8-12,10.7-15.6,17-29.8,6.5-14.7,10.1-30.3,10.1-39.7,0-24.3-11-53.9-36.7-71-19.8-13.2-40.3-13.9-49.3-13.6-47.7,0-86.3,37.9-86.3,84.6s3.6,25,10.1,39.7c6.3,14.1,11.2,17.8,17,29.8,5,10.3,10.3,26.1,9.9,48.8h98.3Z"/>
        <path class="cls-1" d="M304.5,344.8h126.8c-13.1,22.6-37.3,32.4-63.4,32.4s-50.4-9.8-63.4-32.4Z"/>
      </g>
      <g>
        <path class="cls-3" d="M175,298.9c-3.5-8.4-6.7-17-9.2-25.8-1.4-4.4-2.4-8.8-3.5-13.3l-.4-1.7-.3-1.7-.7-3.4c-.4-2.3-1-4.5-1.3-6.8-.7-4.5-1.5-9.1-1.9-13.7l-.4-3.4c-.1-1.2-.3-2.3-.3-3.5l-.5-6.9c-.2-2.3-.2-4.6-.2-7,0-2.3-.1-4.7,0-7,.1-4.6.1-9.3.5-14,1.2-18.7,5-37.3,11-55.4,3.1-9,6.6-17.9,11-26.5l1.6-3.2c.5-1.1,1.1-2.1,1.7-3.2l3.5-6.3,3.8-6.2,1.9-3.1,2.1-3c1.4-2,2.8-4,4.2-6l4.5-5.8c.8-1,1.5-1.9,2.3-2.9l2.4-2.8c1.6-1.8,3.2-3.7,4.8-5.5l5.1-5.3c.9-.9,1.7-1.8,2.6-2.6l2.7-2.5c1.8-1.6,3.6-3.4,5.4-4.9l5.6-4.7c1.9-1.6,3.8-3.1,5.8-4.5,2-1.4,3.9-2.9,6-4.3,4.1-2.7,8.2-5.5,12.4-7.9,2.1-1.2,4.3-2.5,6.4-3.6l6.6-3.3c1.1-.5,2.2-1.1,3.3-1.6l3.4-1.5c2.2-1,4.5-2,6.8-2.9l6.9-2.6,7-2.4c2.3-.7,4.7-1.4,7.1-2.1,2.4-.7,4.8-1.2,7.2-1.7,2.4-.4,4.9-.7,7.4-.8,2.5-.1,5,0,7.5,0,5,.4,10,1.3,15,2.6,2.5.6,4.9,1.4,7.3,2.1,2.4.7,4.8,1.5,7.2,2.3,4.7,1.5,9.3,3,13.8,4.1,2.3.5,4.5,1.1,6.7,1.5,2.2.4,4.5.8,6.7,1,.6,0,1.1.1,1.7.2.6,0,1.1.1,1.7.1,1.1,0,2.3,0,3.4-.1,1.2,0,2.3-.2,3.5-.3.6,0,1.2,0,1.7,0,.3,0,.6,0,.9,0,.3,0,.6,0,.8.1l-.5,3.3c-.3,0-.6,0-.8-.1-.1,0-.3-.1-.4-.1-.1,0-.3,0-.5.2-.6.3-1.2.6-1.8,1.1-1.2.8-2.5,1.8-3.7,2.6-.6.4-1.2.9-1.8,1.2-.6.3-1.2.6-1.7.8-1.1.4-2.2.4-3.3.5l-6.5.9c-2.2.4-4.3.7-6.4,1.1l-6.3,1.3c-2.1.5-4.2.9-6.3,1.4-2.1.5-4.1.9-6.2,1.5-2,.6-4.1,1-6.1,1.5l-24,5.9-6,1.5-5.9,1.6-5.9,1.8-5.8,2c-7.7,3-15.4,6-22.6,9.9-3.8,1.7-7.3,3.9-10.9,5.9-1.8,1-3.5,2.2-5.3,3.3-1.7,1.1-3.5,2.2-5.2,3.4l-5.1,3.6c-1.7,1.2-3.3,2.5-5,3.8-3.4,2.5-6.5,5.3-9.7,7.9-1.6,1.4-3.1,2.8-4.6,4.3l-2.3,2.1c-.8.7-1.5,1.5-2.2,2.2l-4.4,4.5-4.2,4.7-2.1,2.4-2,2.5-4,4.9-3.8,5.1c-.6.9-1.3,1.7-1.9,2.6l-1.8,2.7c-1.2,1.8-2.4,3.5-3.5,5.4l-3.3,5.5c-1.1,1.8-2.1,3.7-3.1,5.6-1,1.9-2.1,3.8-3,5.7-1.8,3.9-3.8,7.8-5.4,11.8l-1.3,3c-.4,1-.8,2-1.2,3l-2.2,6.1c-2.7,8.3-5.1,16.7-6.7,25.3-.9,4.3-1.5,8.6-2.2,13-.2,1.1-.3,2.2-.4,3.3l-.3,3.3c-.2,2.2-.4,4.4-.5,6.6l-.3,6.6c-.1,2.2,0,4.4,0,6.6,0,4.4.4,8.8.7,13.3.8,8.8,2.1,17.7,4.2,26.3,1.9,8.7,4.7,17.2,7.7,25.6l-3.9,1.6Z"/>
        <path class="cls-3" d="M559.4,146.8c3.4,8.4,6.7,17,9.2,25.8,1.4,4.4,2.4,8.8,3.5,13.3l.4,1.7.3,1.7.7,3.4.7,3.4c.2,1.1.5,2.3.6,3.4.7,4.5,1.5,9.1,1.9,13.7.2,2.3.6,4.6.7,6.9l.4,6.9c.2,2.3.2,4.6.2,6.9,0,2.3.1,4.6,0,7-.1,4.6-.2,9.3-.6,14l-.3,3.5c0,1.2-.2,2.3-.3,3.5l-.9,7c-.2,2.3-.7,4.6-1.1,6.9l-.6,3.5-.3,1.7-.4,1.7-1.5,6.9c-.2,1.2-.5,2.3-.8,3.4l-.9,3.4c-1.1,4.6-2.7,9.1-4.1,13.6-.7,2.3-1.6,4.5-2.5,6.7-.8,2.2-1.7,4.5-2.7,6.6l-2.9,6.6c-1,2.2-2.1,4.3-3.1,6.4l-1.6,3.2c-.5,1.1-1.2,2.1-1.7,3.2l-3.5,6.3c-1.2,2.1-2.5,4.1-3.8,6.1l-1.9,3-2.1,3c-1.4,2-2.8,4-4.2,5.9l-4.5,5.7c-.8.9-1.5,1.9-2.3,2.8l-2.4,2.7c-1.6,1.8-3.2,3.7-4.8,5.4-3.4,3.4-6.7,7-10.4,10.2-1.8,1.6-3.6,3.3-5.4,4.9-1.9,1.6-3.8,3.1-5.7,4.6-1.9,1.6-3.9,3-5.8,4.4-2,1.4-3.9,2.9-5.9,4.3-2,1.3-4.1,2.7-6.1,4-2,1.4-4.2,2.5-6.3,3.7-8.4,5-17.3,9-26.3,12.8l-6.8,2.6c-2.3.8-4.6,1.6-7,2.3-2.4.7-4.7,1.2-7.1,1.8-2.4.5-4.8.8-7.2,1.2-2.4.3-4.9.5-7.3.6-2.4.1-4.9,0-7.4,0-1.2,0-2.5-.1-3.7-.2l-3.7-.3c-2.4-.2-4.9-.6-7.3-.9-9.7-1.4-19-3.8-28.1-5.8-9.1-2-17.9-3.7-26.9-5.2l1.5-9.3c8.6.9,17.2.7,25.8-.5,2.1-.4,4.2-.7,6.3-1.1,2.1-.4,4.2-.8,6.3-1.3,2.1-.5,4.1-1,6.2-1.6,2-.6,4.1-1.1,6.1-1.7,8-2.5,15.8-5.1,23.5-7.6,7.7-2.5,15.5-4.8,23.1-7.6,15.1-5.8,29.8-13,43.3-22.2,13.5-9.2,26.2-20,37.3-32.5l2.1-2.3,2-2.4,4-4.9,3.8-5c.6-.8,1.3-1.7,1.9-2.5l1.8-2.6c4.9-6.9,9.1-14.3,13.1-21.9,1.9-3.8,3.9-7.7,5.5-11.6l1.3-3c.4-1,.9-2,1.2-3l2.3-6.1c2.9-8.2,5.3-16.5,7-25.1,1-4.3,1.6-8.6,2.3-12.9.2-1.1.3-2.2.4-3.3l.3-3.3c.2-2.2.5-4.4.6-6.6l.3-6.6c0-1.1,0-2.2,0-3.3v-3.3c0-4.4-.3-8.8-.5-13.3-.7-8.8-1.9-17.6-3.9-26.3-1.8-8.7-4.5-17.2-7.4-25.7l3.9-1.6Z"/>
      </g>
      <path class="cls-3" d="M0,224.3c.1-.9.7-1.9,1.1-2.7,3.9-7.8,8.2-15.4,12.7-22.8C68.2,111.1,153.2,40.8,253.6,13.3c28.6-7.9,58.4-12.2,88.1-13.1,53.2-1.3,106.7,6.3,157.1,23.6,64.5,22.2,123.5,61.1,169.7,110.9,25.8,27.4,47.5,58.3,66.1,90.8-18,32.8-41.9,62-68.2,88.7-50.8,51.1-114.3,90.8-183.3,112.3-6.6,1.9-13.7,4-20.3,5.8-8.1,1.9-19.5,4.7-27.6,6,0,0-13.9,2.5-13.9,2.5-4.8.8-16.3,2.1-21,2.7-4.5.4-16.4,1.3-21.1,1.7-4,.3-10,.4-14.1.5-4.3.1-9.9.4-14.1.3-5.1-.1-16.4-.4-21.2-.7-5.1-.4-12.6-1-17.7-1.5-10.6-1.2-21.1-2.6-31.5-4.8-2.3-.4-8.2-1.7-10.4-2.1-3.5-.9-15.3-3.8-18.9-4.7-5.8-1.8-12.8-3.9-18.6-5.8-4.8-1.7-11.9-4.3-16.6-6-9-3.6-20.5-8.6-29.1-12.9-46.1-22.5-87.7-54.6-122.5-92.1-22-23.8-41.6-49.7-57.6-77.7-2.4-4.4-5.1-8.7-6.8-13.3h0ZM4.4,224.2c.3.2.6.3.8.5,0,0,0,0,.2.2l.3.3.5.7c10,13.7,20.8,26.7,32.2,39.3,41.8,46.1,91.5,86.2,147.7,113.2,31.5,15.4,65.4,26.4,99.9,32.5,49.7,9,101.2,7.2,150.9-1.7,5-.9,14.4-3.1,19.4-4.1,6.3-1.4,12.9-3.4,19.2-4.9,18.8-5.6,38.2-12.1,56.1-20.1,77.8-33.9,146.7-88.7,199-155.6,0,0,0,2.2,0,2.2-53.8-72.1-124.4-133.4-208.5-166.6-57.7-23.2-120.5-33.2-182.7-31.3-62.1,2-122.8,20.1-176.8,51.1C100.9,115.4,47.7,165.1,6,222.6c0,0-1,1.4-1,1.4l-.5.7c-.1.2,0,0,0,0,0-.1,0-.2-.1-.3h0Z"/>
    </g>
  </g>
</svg>