<svg width="17" height="17" viewBox="0 0 17 17" fill="none" xmlns="http://www.w3.org/2000/svg">
<g clip-path="url(#clip0_45_89)">
<path d="M15.5667 11.5539V13.5539C15.5675 13.7396 15.5295 13.9234 15.4551 14.0935C15.3807 14.2636 15.2716 14.4163 15.1348 14.5418C14.998 14.6673 14.8364 14.7629 14.6606 14.8224C14.4847 14.8819 14.2983 14.904 14.1134 14.8872C12.062 14.6643 10.0914 13.9633 8.36006 12.8406C6.74928 11.817 5.38362 10.4514 4.36006 8.84058C3.23338 7.10138 2.53222 5.12124 2.31339 3.06058C2.29673 2.87622 2.31864 2.69042 2.37773 2.51499C2.43681 2.33957 2.53178 2.17837 2.65657 2.04166C2.78137 1.90494 2.93326 1.79572 3.10259 1.72092C3.27191 1.64613 3.45495 1.60742 3.64006 1.60724H5.64006C5.9636 1.60406 6.27726 1.71863 6.52257 1.9296C6.76788 2.14057 6.92811 2.43354 6.97339 2.75391C7.05781 3.39395 7.21436 4.02239 7.44006 4.62724C7.52976 4.86586 7.54917 5.12519 7.496 5.3745C7.44283 5.62381 7.3193 5.85265 7.14006 6.03391L6.29339 6.88058C7.24243 8.54961 8.62436 9.93154 10.2934 10.8806L11.1401 10.0339C11.3213 9.85467 11.5502 9.73114 11.7995 9.67797C12.0488 9.6248 12.3081 9.64421 12.5467 9.73391C13.1516 9.95961 13.78 10.1162 14.4201 10.2006C14.7439 10.2463 15.0397 10.4094 15.2511 10.6589C15.4625 10.9084 15.5748 11.227 15.5667 11.5539Z" stroke="white" stroke-width="1.33333" stroke-linecap="round" stroke-linejoin="round"/>
</g>
<defs>
<clipPath id="clip0_45_89">
<rect width="16" height="16" fill="white" transform="translate(0.900085 0.273804)"/>
</clipPath>
</defs>
</svg>
